# xmcd
#
# Track frame offsets: 
#        150
#        11663
#        22253
#        33821
#        44579
#        55858
#        65483
#        76628
#        87205
#        97763
#        108999
#        120482
#        130974
#        143977
#        154542
#        165262
#        176541
#        188168
#        196703
#        206220
#        217546
#        228886
#
# Disc length: 3198 seconds
#
# Revision: 2
# Processed by: cddbd v1.5.2PL0 Copyright (c) Steve Scherf et al.
# Submitted via: ExactAudioCopyFreeDBPlugin 1.0
#
DISCID=110c7c16
DTITLE=Various Artist - Save The Last Dance For Me
DYEAR=2016
DGENRE=Oldies
TTITLE0=The Cascades - Rhythm Of The Rain
TTITLE1=Elvis Presley - Viva Las Vegas
TTITLE2=Gary US Bonds - Seven Day Weekend
TTITLE3=Len Barry - 1-2-3
TTITLE4=LaVern Baker - Hey Memphis
TTITLE5=Bobby Rydell - Forget Him
TTITLE6=The Searchers - Sweets For My Sweet
TTITLE7=Marty Wilde - A Teenager In Love
TTITLE8=The Coasters - Young Blood
TTITLE9=Freddy Cannon - Way Down Yonder In New Orleans
TTITLE10=Terry Stafford - Suspicion
TTITLE11=The Hollies - Here I Go Again
TTITLE12=Booker T And The MG's - Green Onions
TTITLE13=Ben E King - First Taste Of Love
TTITLE14=Andy Williams - Can't Get Used To Losing You
TTITLE15=The Marvelettes - Please Mr Postman (Single Version)
TTITLE16=Ray Charles - Lonely Avenue
TTITLE17=Elvis Presley - Surrender
TTITLE18=Elvis Presley - (Maries The Name) His Latest Flame
TTITLE19=The Exciters - Tell Him (Single Version)
TTITLE20=The Mystics - Hushabye
TTITLE21=The Drifters - Save The Last Dance For Me
EXTD=(p) Universal 2016
EXTT0=
EXTT1=
EXTT2=
EXTT3=
EXTT4=
EXTT5=
EXTT6=
EXTT7=
EXTT8=
EXTT9=
EXTT10=
EXTT11=
EXTT12=
EXTT13=
EXTT14=
EXTT15=
EXTT16=
EXTT17=
EXTT18=
EXTT19=
EXTT20=
EXTT21=
PLAYORDER=
